<svg xmlns="http://www.w3.org/2000/svg" width="512.0022" height="410.9278" viewBox="0 0 512.0022 410.9278"><path d="M320.602 300.902c-.754 8.313 1.89 16.711 7.535 22.856 5.644 6.144 13.613 9.398 20.86 12.285 7.91 3.133 14.75 5.695 22.136 10.121 7.039 4.215 13.265 9.457 18.472 15.93 21.41 26.469 19.43 65.312-4.507 89.406-23.946 24.09-61.907 25.387-87.36 3.012-6.488-5.723-12.25-13.07-16.992-20.266-7.21-47.883 6.781-98.05 39.856-133.344m0 0" style="fill:#85a8ff;fill-opacity:1;fill-rule:nonzero;stroke:none" transform="translate(0 -59.54)"/><path d="M351.09 276.332c7.941-4.695 15.36-8.008 24-11.082 8.32-2.95 16.785-5.39 25.34-7.586 8.523-2.2 17.132-4.066 25.742-5.934 8.613-1.867 17.164-3.671 25.484-6.894 40.754-15.84 65.426-58.39 59.461-102.629-5.965-44.234-40.96-78.352-84.39-82.297-19.723-1.777-38.778 2.98-56.407 11.32-17.57 8.313-33.66 20.118-47.652 33.637-28.273 27.254-49.164 62.246-61.906 99.496-12.828 37.489-17.63 77.813-14.602 117.352 1.512 19.695 5.004 39.508 10.59 58.45 5.469 18.577 13.383 37.76 24.027 54.022-4.597-30.445-.64-61.914 11.61-90.097 12.215-28.125 32.465-52.219 58.703-67.758m0 0" style="fill:#0057cc;fill-opacity:1;fill-rule:nonzero;stroke:none" transform="translate(0 -59.54)"/><path d="M169.852 303.29c-2.793-3.192-5.7-6.235-8.93-8.942 4.016 7.047 4.422 15.027 2.734 22.703-1.687 7.648-5.41 14.726-10.12 20.808-4.86 6.235-10.563 11.204-16.759 15.903-5.41 4.093-13.293 9.336-18.183 14.242-14.367 14.453-17.309 37.039-7.125 54.805 10.18 17.796 30.836 26.23 50.18 20.449 10.675-3.195 19.726-10.39 26.91-18.61 7.273-8.312 13.18-18.191 17.832-28.187-1.192-34.48-14.11-67.426-36.54-93.172m0 0" style="fill:#85a8ff;fill-opacity:1;fill-rule:nonzero;stroke:none" transform="translate(0 -59.54)"/><path d="M78.656 111.367c29.582-.031 58.297 16.801 79.094 35.684 22.082 20.054 39.188 45.59 50.445 73.355 11.317 27.914 16.758 58.086 16.551 88.23-.203 29.301-5.848 61.04-18.355 87.813-1.192-34.48-14.11-67.457-36.536-93.199-3.93-4.488-8.03-8.555-12.917-11.988-4.887-3.434-10.036-5.961-15.594-7.977-10.793-3.918-22.98-5.754-34.211-7.02-11.578-1.324-23.215-2.105-34.762-3.855-11.867-1.805-22.516-4.453-33.105-10.75-30.836-18.246-45.79-55.406-36.567-90.578 9.223-35.203 40.38-59.687 75.957-59.715m0 0" style="fill:#0057cc;fill-opacity:1;fill-rule:nonzero;stroke:none" transform="translate(0 -59.54)"/></svg>